<mxfile host="65bd71144e">
    <diagram id="d7rtc8RCk8frshT6iD-F" name="Page-1">
        <mxGraphModel dx="832" dy="471" grid="1" gridSize="10" guides="1" tooltips="1" connect="1" arrows="1" fold="1" page="1" pageScale="1" pageWidth="850" pageHeight="1100" math="0" shadow="0">
            <root>
                <mxCell id="0"/>
                <mxCell id="1" parent="0"/>
                <mxCell id="19" value="" style="swimlane;childLayout=stackLayout;resizeParent=1;resizeParentMax=0;startSize=20;html=1;" vertex="1" parent="1">
                    <mxGeometry x="220.00000000000045" y="100" width="480" height="280" as="geometry"/>
                </mxCell>
                <mxCell id="20" value="Controller" style="swimlane;startSize=20;html=1;" vertex="1" parent="19">
                    <mxGeometry y="20" width="120" height="260" as="geometry"/>
                </mxCell>
                <mxCell id="21" value="" style="edgeStyle=none;html=1;" edge="1" parent="20" source="22" target="24">
                    <mxGeometry relative="1" as="geometry"/>
                </mxCell>
                <mxCell id="22" value="Initialize" style="rounded=0;whiteSpace=wrap;html=1;" vertex="1" parent="20">
                    <mxGeometry x="10" y="40" width="100" height="40" as="geometry"/>
                </mxCell>
                <mxCell id="23" value="" style="edgeStyle=orthogonalEdgeStyle;html=1;fontSize=15;" edge="1" parent="20" source="24" target="25">
                    <mxGeometry relative="1" as="geometry"/>
                </mxCell>
                <mxCell id="24" value="FilterItems" style="rounded=0;whiteSpace=wrap;html=1;" vertex="1" parent="20">
                    <mxGeometry x="9.999999999999545" y="120" width="100" height="40" as="geometry"/>
                </mxCell>
                <mxCell id="25" value="ShowItems" style="rounded=0;whiteSpace=wrap;html=1;" vertex="1" parent="20">
                    <mxGeometry x="9.999999999999545" y="200" width="100" height="40" as="geometry"/>
                </mxCell>
                <mxCell id="30" value="" style="edgeStyle=none;html=1;" edge="1" parent="19" source="22" target="27">
                    <mxGeometry relative="1" as="geometry">
                        <mxPoint x="159.99999999999955" y="90" as="sourcePoint"/>
                    </mxGeometry>
                </mxCell>
                <mxCell id="26" value="Business Logic" style="swimlane;startSize=20;html=1;" vertex="1" parent="19">
                    <mxGeometry x="120" y="20" width="240" height="260" as="geometry"/>
                </mxCell>
                <mxCell id="27" value="GetItems" style="rounded=0;whiteSpace=wrap;html=1;" vertex="1" parent="26">
                    <mxGeometry x="9.999999999999545" y="40" width="100" height="40" as="geometry"/>
                </mxCell>
                <mxCell id="36" value="FilterItems" style="rounded=0;whiteSpace=wrap;html=1;" vertex="1" parent="26">
                    <mxGeometry x="9.999999999999545" y="120" width="100" height="40" as="geometry"/>
                </mxCell>
                <mxCell id="28" value="Model" style="swimlane;startSize=20;html=1;" vertex="1" parent="19">
                    <mxGeometry x="360" y="20" width="120" height="260" as="geometry"/>
                </mxCell>
                <mxCell id="29" value="GetItems" style="rounded=0;whiteSpace=wrap;html=1;" vertex="1" parent="28">
                    <mxGeometry x="9.999999999999545" y="40" width="100" height="40" as="geometry"/>
                </mxCell>
                <mxCell id="31" style="edgeStyle=none;html=1;" edge="1" parent="19" source="27" target="29">
                    <mxGeometry relative="1" as="geometry"/>
                </mxCell>
                <mxCell id="37" style="edgeStyle=none;html=1;" edge="1" parent="19" source="24" target="36">
                    <mxGeometry relative="1" as="geometry">
                        <Array as="points"/>
                    </mxGeometry>
                </mxCell>
                <mxCell id="32" style="edgeStyle=none;html=1;" edge="1" source="33" target="22" parent="1">
                    <mxGeometry relative="1" as="geometry"/>
                </mxCell>
                <mxCell id="33" value="Visitor/User" style="shape=umlActor;verticalLabelPosition=bottom;verticalAlign=top;html=1;outlineConnect=0;" vertex="1" parent="1">
                    <mxGeometry x="120" y="150" width="30" height="60" as="geometry"/>
                </mxCell>
                <mxCell id="34" value="" style="ellipse;fillColor=strokeColor;fontSize=15;" vertex="1" parent="1">
                    <mxGeometry x="120" y="325" width="30" height="30" as="geometry"/>
                </mxCell>
                <mxCell id="35" style="edgeStyle=orthogonalEdgeStyle;html=1;fontSize=15;" edge="1" source="25" target="34" parent="1">
                    <mxGeometry relative="1" as="geometry"/>
                </mxCell>
            </root>
        </mxGraphModel>
    </diagram>
</mxfile>